<?xml version="1.0" encoding="UTF-8" standalone="no"?>
<!DOCTYPE svg PUBLIC "-//W3C//DTD SVG 1.1//EN" "http://www.w3.org/Graphics/SVG/1.1/DTD/svg11.dtd">
<svg version="1.0" xmlns="http://www.w3.org/2000/svg"
 width="512.000000pt" height="512.000000pt" viewBox="0 0 512.000000 512.000000"
 preserveAspectRatio="xMidYMid meet">
	<rect width="100%" height="100%" fill="#ffffff" />

	<g transform="translate(60.000000,455.000000) scale(0.07800000,-0.07800000)" fill="#3cb043" stroke="round">
		<path d="M4420 5031 c-14 -5 -36 -14 -49 -22 -27 -16 -427 -547 -442 -586 -22 -60 3 -126 63 -163 25 -15 51 -20 106 -20 l72 0 0 -42 c0 -65 -27 -165 -61 -229 -40 -74 -102 -138 -189 -195 -72 -46 -88 -71 -76 -118 8 -34 360 -296 397 -296 36 0 164 96 251 188 151 161 254 366 288 572 21 133 11 120 89 120 80 0 125 23 154 80 35 68 26 86 -186 372 -108 145 -206 274 -218 287 -46 49 -133 72 -199 52z m76 -159 c6 -4 89 -110 183 -237 l172 -230 -86 -5 c-112 -6 -119 -15 -129 -139 -13 -174 -74 -351 -167 -488 -38 -55 -137 -162 -190 -204 l-36 -29 -87 66 -87 65 74 78 c148 155 216 373 178 569 -13 66 -28 76 -127 82 l-86 5 134 180 c74 99 153 206 176 238 42 56 55 64 78 49z"/>
		<path d="M2379 4707 c-25 -7 -66 -25 -90 -39 -25 -15 -395 -333 -822 -707 l-777 -681 -48 0 c-210 0 -412 -126 -502 -314 -21 -45 -43 -108 -49 -140 -15 -83 -15 -2209 0 -2292 35 -194 186 -361 389 -430 53 -18 123 -19 1880 -19 1757 0 1827 1 1880 19 182 62 305 182 372 363 20 54 22 81 26 354 l4 297 54 7 c74 9 182 65 234 121 23 25 56 75 73 112 l32 67 0 255 0 255 -32 67 c-17 37 -50 87 -73 112 -52 56 -160 112 -235 121 l-55 7 0 262 c0 144 -5 289 -11 322 -17 97 -78 211 -154 287 -76 77 -190 138 -289 156 -33 6 -178 11 -322 11 l-263 0 -3 288 c-3 273 -4 290 -26 344 -34 84 -107 160 -200 205 -72 36 -81 38 -172 38 -95 0 -96 0 -204 -52 -59 -29 -110 -53 -112 -53 -2 0 -4 69 -4 153 0 175 -13 242 -63 326 -66 110 -183 180 -315 187 -45 2 -96 -1 -123 -9z m156 -158 c63 -18 118 -62 150 -121 l30 -53 3 -202 4 -202 -692 -346 -691 -345 -198 2 -198 3 707 620 c794 696 767 677 885 644z m1473 -2736 c50 -38 67 -70 67 -132 0 -47 -5 -64 -27 -93 -70 -92 -192 -89 -262 6 -32 43 -29 132 6 178 15 19 42 42 60 52 42 21 120 16 156 -11z"/>
	</g>
</svg>