<svg xmlns="http://www.w3.org/2000/svg" width="456" height="456" viewBox="0 0 456 456">
	<rect width="100%" height="100%" fill="#fff"/>
	<g fill="#3cb043">
		<path d="M270.5 149.225c-.35.125-.9.35-1.225.55-.675.4-10.675 13.675-11.05 14.65-.55 1.5.075 3.15 1.575 4.075.625.375 1.275.5 2.65.5h1.8v1.05c0 1.625-.675 4.125-1.525 5.725-1 1.85-2.55 3.45-4.725 4.875-1.8 1.15-2.2 1.775-1.9 2.95.2.85 9 7.4 9.925 7.4.9 0 4.1-2.4 6.275-4.7 3.775-4.025 6.35-9.15 7.2-14.3.525-3.325.275-3 2.225-3 2 0 3.125-.575 3.85-2 .875-1.7.65-2.15-4.65-9.3-2.7-3.625-5.15-6.85-5.45-7.175-1.15-1.225-3.325-1.8-4.975-1.3zm1.9 3.975c.15.1 2.225 2.75 4.575 5.925l4.3 5.75-2.15.125c-2.8.15-2.975.375-3.225 3.475-.325 4.35-1.85 8.775-4.175 12.2-.95 1.375-3.425 4.05-4.75 5.1l-.9.725-2.175-1.65-2.175-1.625 1.85-1.95c3.7-3.875 5.4-9.325 4.45-14.225-.325-1.65-.7-1.9-3.175-2.05l-2.15-.125 3.35-4.5c1.85-2.475 3.825-5.15 4.4-5.95 1.05-1.4 1.375-1.6 1.95-1.225z"/>
		<path d="M219.475 157.325c-.625.175-1.65.625-2.25.975-.625.375-9.875 8.325-20.55 17.675L177.25 193h-1.2c-5.25 0-10.3 3.15-12.55 7.85-.525 1.125-1.075 2.7-1.225 3.5-.375 2.075-.375 55.225 0 57.3.875 4.85 4.65 9.025 9.725 10.75 1.325.45 3.075.475 47 .475s45.675-.025 47-.475c4.55-1.55 7.625-4.55 9.3-9.075.5-1.35.55-2.025.65-8.85l.1-7.425 1.35-.175c1.85-.225 4.55-1.625 5.85-3.025.575-.625 1.4-1.875 1.825-2.8l.8-1.675v-12.75l-.8-1.675c-.425-.925-1.25-2.175-1.825-2.8-1.3-1.4-4-2.8-5.875-3.025L276 218.95v-6.55c0-3.6-.125-7.225-.275-8.05-.425-2.425-1.95-5.275-3.85-7.175-1.9-1.925-4.75-3.45-7.225-3.9-.825-.15-4.45-.275-8.05-.275h-6.575l-.075-7.2c-.075-6.825-.1-7.25-.65-8.6-.85-2.1-2.675-4-5-5.125-1.8-.9-2.025-.95-4.3-.95-2.375 0-2.4 0-5.1 1.3-1.475.725-2.75 1.325-2.8 1.325s-.1-1.725-.1-3.825c0-4.375-.325-6.05-1.575-8.15-1.65-2.75-4.575-4.5-7.875-4.675-1.125-.05-2.4.025-3.075.225zm3.9 3.95a6.265 6.265 0 0 1 3.75 3.025l.75 1.325.075 5.05.1 5.05-17.3 8.65L193.475 193l-4.95-.05-4.95-.075 17.675-15.5c19.85-17.4 19.175-16.925 22.125-16.1zm36.825 68.4c1.25.95 1.675 1.75 1.675 3.3 0 1.175-.125 1.6-.675 2.325-1.75 2.3-4.8 2.225-6.55-.15-.8-1.075-.725-3.3.15-4.45.375-.475 1.05-1.05 1.5-1.3 1.05-.525 3-.4 3.9.275z"/>
	</g>
</svg>